<svg width="689" height="363" viewBox="0 0 689 363" fill="none" xmlns="http://www.w3.org/2000/svg">
<path d="M187.906 206.524C217.678 206.816 242.008 183.548 242.25 154.554C242.491 125.561 218.552 101.82 188.781 101.528C159.009 101.236 134.679 124.504 134.437 153.498C134.196 182.492 158.135 206.232 187.906 206.524Z" fill="#01257D"/>
<path d="M213.762 122.774L175.713 160.203L163.24 147.48L150.557 159.956L175.503 185.402L226.235 135.497L213.762 122.774Z" fill="white"/>
<path d="M311.25 208.4C302.967 208.4 295.85 206.65 289.9 203.15C283.95 199.65 279.4 194.342 276.25 187.225C273.1 179.992 271.525 170.892 271.525 159.925C271.525 148.842 273.158 139.742 276.425 132.625C279.808 125.508 284.475 120.2 290.425 116.7C296.375 113.2 303.317 111.45 311.25 111.45C320.117 111.45 328.05 113.433 335.05 117.4C342.167 121.367 347.767 126.967 351.85 134.2C356.05 141.433 358.15 150.008 358.15 159.925C358.15 169.725 356.05 178.242 351.85 185.475C347.767 192.708 342.167 198.367 335.05 202.45C328.05 206.417 320.117 208.4 311.25 208.4ZM255.6 207V77.15H282.9V131.925L281.15 159.75L281.675 187.75V207H255.6ZM306.525 186C311.075 186 315.1 184.95 318.6 182.85C322.217 180.75 325.075 177.775 327.175 173.925C329.392 169.958 330.5 165.292 330.5 159.925C330.5 154.442 329.392 149.775 327.175 145.925C325.075 142.075 322.217 139.1 318.6 137C315.1 134.9 311.075 133.85 306.525 133.85C301.975 133.85 297.892 134.9 294.275 137C290.658 139.1 287.8 142.075 285.7 145.925C283.6 149.775 282.55 154.442 282.55 159.925C282.55 165.292 283.6 169.958 285.7 173.925C287.8 177.775 290.658 180.75 294.275 182.85C297.892 184.95 301.975 186 306.525 186Z" fill="#01257D"/>
<path d="M57 245C45.1667 245 34.25 242.833 24.25 238.5C14.4167 234 6.33333 227.667 -1.8999e-07 219.5L22.5 192.5C27.3333 198.833 32.4167 203.667 37.75 207C43.0833 210.167 48.8333 211.75 55 211.75C71.5 211.75 79.75 202.083 79.75 182.75V99.5H18.25V67H120V180.5C120 202.167 114.667 218.333 104 229C93.3333 239.667 77.6667 245 57 245Z" fill="#01257D"/>
<path d="M129.45 325V220H177.15C188.55 220 198.6 222.2 207.3 226.6C216 230.9 222.8 236.95 227.7 244.75C232.6 252.55 235.05 261.8 235.05 272.5C235.05 283.1 232.6 292.35 227.7 300.25C222.8 308.05 216 314.15 207.3 318.55C198.6 322.85 188.55 325 177.15 325H129.45ZM153.75 305.05H175.95C182.95 305.05 189 303.75 194.1 301.15C199.3 298.45 203.3 294.65 206.1 289.75C209 284.85 210.45 279.1 210.45 272.5C210.45 265.8 209 260.05 206.1 255.25C203.3 250.35 199.3 246.6 194.1 244C189 241.3 182.95 239.95 175.95 239.95H153.75V305.05ZM290.126 326.2C281.526 326.2 273.876 324.4 267.176 320.8C260.576 317.2 255.326 312.3 251.426 306.1C247.626 299.8 245.726 292.65 245.726 284.65C245.726 276.55 247.626 269.4 251.426 263.2C255.326 256.9 260.576 252 267.176 248.5C273.876 244.9 281.526 243.1 290.126 243.1C298.626 243.1 306.226 244.9 312.926 248.5C319.626 252 324.876 256.85 328.676 263.05C332.476 269.25 334.376 276.45 334.376 284.65C334.376 292.65 332.476 299.8 328.676 306.1C324.876 312.3 319.626 317.2 312.926 320.8C306.226 324.4 298.626 326.2 290.126 326.2ZM290.126 307C294.026 307 297.526 306.1 300.626 304.3C303.726 302.5 306.176 299.95 307.976 296.65C309.776 293.25 310.676 289.25 310.676 284.65C310.676 279.95 309.776 275.95 307.976 272.65C306.176 269.35 303.726 266.8 300.626 265C297.526 263.2 294.026 262.3 290.126 262.3C286.226 262.3 282.726 263.2 279.626 265C276.526 266.8 274.026 269.35 272.126 272.65C270.326 275.95 269.426 279.95 269.426 284.65C269.426 289.25 270.326 293.25 272.126 296.65C274.026 299.95 276.526 302.5 279.626 304.3C282.726 306.1 286.226 307 290.126 307ZM399.067 243.1C405.467 243.1 411.167 244.4 416.167 247C421.267 249.5 425.267 253.4 428.167 258.7C431.067 263.9 432.517 270.6 432.517 278.8V325H409.117V282.4C409.117 275.9 407.667 271.1 404.767 268C401.967 264.9 397.967 263.35 392.767 263.35C389.067 263.35 385.717 264.15 382.717 265.75C379.817 267.25 377.517 269.6 375.817 272.8C374.217 276 373.417 280.1 373.417 285.1V325H350.017V244.3H372.367V266.65L368.167 259.9C371.067 254.5 375.217 250.35 380.617 247.45C386.017 244.55 392.167 243.1 399.067 243.1ZM494.364 326.2C485.164 326.2 477.064 324.4 470.064 320.8C463.164 317.2 457.814 312.3 454.014 306.1C450.214 299.8 448.314 292.65 448.314 284.65C448.314 276.55 450.164 269.4 453.864 263.2C457.664 256.9 462.814 252 469.314 248.5C475.814 244.9 483.164 243.1 491.364 243.1C499.264 243.1 506.364 244.8 512.664 248.2C519.064 251.5 524.114 256.3 527.814 262.6C531.514 268.8 533.364 276.25 533.364 284.95C533.364 285.85 533.314 286.9 533.214 288.1C533.114 289.2 533.014 290.25 532.914 291.25H467.364V277.6H520.614L511.614 281.65C511.614 277.45 510.764 273.8 509.064 270.7C507.364 267.6 505.014 265.2 502.014 263.5C499.014 261.7 495.514 260.8 491.514 260.8C487.514 260.8 483.964 261.7 480.864 263.5C477.864 265.2 475.514 267.65 473.814 270.85C472.114 273.95 471.264 277.65 471.264 281.95V285.55C471.264 289.95 472.214 293.85 474.114 297.25C476.114 300.55 478.864 303.1 482.364 304.9C485.964 306.6 490.164 307.45 494.964 307.45C499.264 307.45 503.014 306.8 506.214 305.5C509.514 304.2 512.514 302.25 515.214 299.65L527.664 313.15C523.964 317.35 519.314 320.6 513.714 322.9C508.114 325.1 501.664 326.2 494.364 326.2Z" fill="#01257D"/>
</svg>
